<svg xmlns="http://www.w3.org/2000/svg" version="1.1" width="900px" height="734px" style="shape-rendering:geometricPrecision; text-rendering:geometricPrecision; image-rendering:optimizeQuality; fill-rule:evenodd; clip-rule:evenodd" xmlns:xlink="http://www.w3.org/1999/xlink">
<g><path style="opacity:1" fill="#000000" d="M -0.5,-0.5 C 299.5,-0.5 599.5,-0.5 899.5,-0.5C 899.5,244.167 899.5,488.833 899.5,733.5C 599.5,733.5 299.5,733.5 -0.5,733.5C -0.5,488.833 -0.5,244.167 -0.5,-0.5 Z"/></g>
<g><path style="opacity:1" fill="#cfeb13" d="M 544.5,233.5 C 544.561,235.592 545.561,237.092 547.5,238C 545.899,238.273 544.399,238.773 543,239.5C 540.593,239.327 538.26,239.327 536,239.5C 535.333,236.833 534.667,236.833 534,239.5C 528.571,238.36 523.071,238.36 517.5,239.5C 514.085,237.399 510.418,237.399 506.5,239.5C 504.5,239.167 502.5,238.833 500.5,238.5C 499.483,241.028 498.316,241.028 497,238.5C 495.093,238.421 493.093,238.754 491,239.5C 488.539,238.782 486.039,238.115 483.5,237.5C 481.833,238.833 480.167,238.833 478.5,237.5C 478.167,238.167 477.833,238.833 477.5,239.5C 475.588,239.512 473.588,239.179 471.5,238.5C 470.808,239.025 470.308,239.692 470,240.5C 469.311,239.643 468.478,238.977 467.5,238.5C 452,238.459 436.5,238.793 421,239.5C 419.667,236.833 418.333,236.833 417,239.5C 415.667,236.833 414.333,236.833 413,239.5C 411.333,238.167 409.667,238.167 408,239.5C 407,238.833 406,238.167 405,237.5C 403.434,236.939 402.101,237.606 401,239.5C 398.271,238.475 395.271,238.475 392,239.5C 390.667,236.833 389.333,236.833 388,239.5C 387.667,238.833 387.333,238.167 387,237.5C 385.667,238.167 384.333,238.833 383,239.5C 380.816,240.108 378.816,239.441 377,237.5C 376.333,238.833 375.667,238.833 375,237.5C 374.667,238.167 374.333,238.833 374,239.5C 372.57,239.306 371.07,239.306 369.5,239.5C 366.697,237.575 363.697,237.575 360.5,239.5C 358.608,236.956 356.775,236.956 355,239.5C 353.691,237.109 352.691,237.109 352,239.5C 349.803,237.269 347.47,237.269 345,239.5C 343.118,238.603 340.951,238.603 338.5,239.5C 337.353,239.182 336.519,238.516 336,237.5C 335.692,238.308 335.192,238.975 334.5,239.5C 332.618,238.907 330.785,238.24 329,237.5C 327.983,240.028 326.816,240.028 325.5,237.5C 323.833,238.167 322.167,238.833 320.5,239.5C 316.064,239.269 311.231,239.269 306,239.5C 305.667,238.833 305.333,238.167 305,237.5C 303.559,238.26 302.059,238.926 300.5,239.5C 296.816,238.789 292.983,238.456 289,238.5C 288.283,239.044 287.783,239.711 287.5,240.5C 281.864,230.94 279.864,220.607 281.5,209.5C 283.889,210.18 286.222,211.014 288.5,212C 298.816,213.165 309.15,214.165 319.5,215C 378.5,215.333 437.5,215.667 496.5,216C 514.235,217.408 530.235,223.242 544.5,233.5 Z"/></g>
<g><path style="opacity:1" fill="#caee19" d="M 544.5,233.5 C 553.104,239.102 560.437,246.102 566.5,254.5C 564.138,255.22 561.971,254.553 560,252.5C 557.739,254.129 555.405,254.462 553,253.5C 552.055,253.905 551.388,254.572 551,255.5C 548.238,252.639 545.405,252.306 542.5,254.5C 539.684,255.13 537.018,254.464 534.5,252.5C 532.758,254.973 530.925,254.973 529,252.5C 527.684,255.028 526.517,255.028 525.5,252.5C 524.833,253.167 524.167,253.833 523.5,254.5C 521.902,254.39 520.235,254.057 518.5,253.5C 517.459,255.991 516.626,255.991 516,253.5C 514.594,254.668 513.428,254.335 512.5,252.5C 511.252,253.04 510.085,253.707 509,254.5C 508.667,253.833 508.333,253.167 508,252.5C 506.667,253.167 505.333,253.833 504,254.5C 503.667,253.833 503.333,253.167 503,252.5C 502.311,253.357 501.478,254.023 500.5,254.5C 497.977,253.553 495.311,253.553 492.5,254.5C 491.522,254.023 490.689,253.357 490,252.5C 489.692,253.308 489.192,253.975 488.5,254.5C 487.28,253.289 486.113,253.289 485,254.5C 483.691,252.109 482.691,252.109 482,254.5C 480.691,252.109 479.691,252.109 479,254.5C 476.519,253.978 474.186,253.978 472,254.5C 471.667,253.833 471.333,253.167 471,252.5C 468.995,254.8 466.828,254.8 464.5,252.5C 463.808,253.025 463.308,253.692 463,254.5C 453.103,254.269 443.603,254.269 434.5,254.5C 433.5,253.833 432.5,253.167 431.5,252.5C 430.5,253.167 429.5,253.833 428.5,254.5C 425.22,253.426 422.053,253.426 419,254.5C 417.667,253.833 416.333,253.167 415,252.5C 414.667,253.167 414.333,253.833 414,254.5C 410.783,253.997 407.617,253.664 404.5,253.5C 402.626,253.39 401.126,254.056 400,255.5C 396.333,254.5 392.667,253.5 389,252.5C 386.816,251.892 384.816,252.559 383,254.5C 378.774,254.047 374.44,254.047 370,254.5C 368.846,252.043 367.512,252.043 366,254.5C 363.405,254.997 360.905,254.33 358.5,252.5C 357.808,253.025 357.308,253.692 357,254.5C 353.792,254.25 350.292,254.25 346.5,254.5C 344.618,253.907 342.785,253.24 341,252.5C 339.204,253.767 337.371,253.767 335.5,252.5C 333.405,254.589 331.572,254.589 330,252.5C 329.333,253.167 328.667,253.833 328,254.5C 326.887,253.289 325.72,253.289 324.5,254.5C 323.685,252.724 322.518,252.057 321,252.5C 320.667,253.167 320.333,253.833 320,254.5C 314.537,254.61 309.204,254.276 304,253.5C 303.302,254.691 302.469,255.691 301.5,256.5C 295.722,252.06 291.055,246.727 287.5,240.5C 287.783,239.711 288.283,239.044 289,238.5C 292.983,238.456 296.816,238.789 300.5,239.5C 302.059,238.926 303.559,238.26 305,237.5C 305.333,238.167 305.667,238.833 306,239.5C 311.231,239.269 316.064,239.269 320.5,239.5C 322.167,238.833 323.833,238.167 325.5,237.5C 326.816,240.028 327.983,240.028 329,237.5C 330.785,238.24 332.618,238.907 334.5,239.5C 335.192,238.975 335.692,238.308 336,237.5C 336.519,238.516 337.353,239.182 338.5,239.5C 340.951,238.603 343.118,238.603 345,239.5C 347.47,237.269 349.803,237.269 352,239.5C 352.691,237.109 353.691,237.109 355,239.5C 356.775,236.956 358.608,236.956 360.5,239.5C 363.697,237.575 366.697,237.575 369.5,239.5C 371.07,239.306 372.57,239.306 374,239.5C 374.333,238.833 374.667,238.167 375,237.5C 375.667,238.833 376.333,238.833 377,237.5C 378.816,239.441 380.816,240.108 383,239.5C 384.333,238.833 385.667,238.167 387,237.5C 387.333,238.167 387.667,238.833 388,239.5C 389.333,236.833 390.667,236.833 392,239.5C 395.271,238.475 398.271,238.475 401,239.5C 402.101,237.606 403.434,236.939 405,237.5C 406,238.167 407,238.833 408,239.5C 409.667,238.167 411.333,238.167 413,239.5C 414.333,236.833 415.667,236.833 417,239.5C 418.333,236.833 419.667,236.833 421,239.5C 436.5,238.793 452,238.459 467.5,238.5C 468.478,238.977 469.311,239.643 470,240.5C 470.308,239.692 470.808,239.025 471.5,238.5C 473.588,239.179 475.588,239.512 477.5,239.5C 477.833,238.833 478.167,238.167 478.5,237.5C 480.167,238.833 481.833,238.833 483.5,237.5C 486.039,238.115 488.539,238.782 491,239.5C 493.093,238.754 495.093,238.421 497,238.5C 498.316,241.028 499.483,241.028 500.5,238.5C 502.5,238.833 504.5,239.167 506.5,239.5C 510.418,237.399 514.085,237.399 517.5,239.5C 523.071,238.36 528.571,238.36 534,239.5C 534.667,236.833 535.333,236.833 536,239.5C 538.26,239.327 540.593,239.327 543,239.5C 544.399,238.773 545.899,238.273 547.5,238C 545.561,237.092 544.561,235.592 544.5,233.5 Z"/></g>
<g><path style="opacity:1" fill="#c4ee1d" d="M 566.5,254.5 C 568.226,256.228 569.559,258.228 570.5,260.5C 569.115,261.614 567.615,262.614 566,263.5C 543.968,263.525 521.634,263.192 499,262.5C 497.581,263.46 496.081,264.293 494.5,265C 496.5,265.333 498.5,265.667 500.5,266C 495.833,266.667 491.167,266.667 486.5,266C 488.5,265.667 490.5,265.333 492.5,265C 490.236,264.764 488.069,264.264 486,263.5C 485.667,263.833 485.333,264.167 485,264.5C 484.692,263.692 484.192,263.025 483.5,262.5C 476.367,262.766 469.367,262.766 462.5,262.5C 461.808,263.025 461.308,263.692 461,264.5C 458.885,261.682 457.052,261.849 455.5,265C 434.996,265.168 414.663,265.668 394.5,266.5C 393.391,266.557 392.391,266.89 391.5,267.5C 390.518,266.859 389.518,266.193 388.5,265.5C 386.359,265.888 384.359,265.888 382.5,265.5C 381.808,266.025 381.308,266.692 381,267.5C 380,266.167 379,266.167 378,267.5C 377.692,266.692 377.192,266.025 376.5,265.5C 373.437,266.435 370.27,266.435 367,265.5C 366.333,268.167 365.667,268.167 365,265.5C 363.184,267.441 361.184,268.108 359,267.5C 358.667,266.833 358.333,266.167 358,265.5C 357.259,266.641 356.425,266.641 355.5,265.5C 354.482,266.193 353.482,266.859 352.5,267.5C 351.833,267.5 351.167,267.5 350.5,267.5C 343.191,266.752 335.858,266.418 328.5,266.5C 318.452,265.747 309.452,262.414 301.5,256.5C 302.469,255.691 303.302,254.691 304,253.5C 309.204,254.276 314.537,254.61 320,254.5C 320.333,253.833 320.667,253.167 321,252.5C 322.518,252.057 323.685,252.724 324.5,254.5C 325.72,253.289 326.887,253.289 328,254.5C 328.667,253.833 329.333,253.167 330,252.5C 331.572,254.589 333.405,254.589 335.5,252.5C 337.371,253.767 339.204,253.767 341,252.5C 342.785,253.24 344.618,253.907 346.5,254.5C 350.292,254.25 353.792,254.25 357,254.5C 357.308,253.692 357.808,253.025 358.5,252.5C 360.905,254.33 363.405,254.997 366,254.5C 367.512,252.043 368.846,252.043 370,254.5C 374.44,254.047 378.774,254.047 383,254.5C 384.816,252.559 386.816,251.892 389,252.5C 392.667,253.5 396.333,254.5 400,255.5C 401.126,254.056 402.626,253.39 404.5,253.5C 407.617,253.664 410.783,253.997 414,254.5C 414.333,253.833 414.667,253.167 415,252.5C 416.333,253.167 417.667,253.833 419,254.5C 422.053,253.426 425.22,253.426 428.5,254.5C 429.5,253.833 430.5,253.167 431.5,252.5C 432.5,253.167 433.5,253.833 434.5,254.5C 443.603,254.269 453.103,254.269 463,254.5C 463.308,253.692 463.808,253.025 464.5,252.5C 466.828,254.8 468.995,254.8 471,252.5C 471.333,253.167 471.667,253.833 472,254.5C 474.186,253.978 476.519,253.978 479,254.5C 479.691,252.109 480.691,252.109 482,254.5C 482.691,252.109 483.691,252.109 485,254.5C 486.113,253.289 487.28,253.289 488.5,254.5C 489.192,253.975 489.692,253.308 490,252.5C 490.689,253.357 491.522,254.023 492.5,254.5C 495.311,253.553 497.977,253.553 500.5,254.5C 501.478,254.023 502.311,253.357 503,252.5C 503.333,253.167 503.667,253.833 504,254.5C 505.333,253.833 506.667,253.167 508,252.5C 508.333,253.167 508.667,253.833 509,254.5C 510.085,253.707 511.252,253.04 512.5,252.5C 513.428,254.335 514.594,254.668 516,253.5C 516.626,255.991 517.459,255.991 518.5,253.5C 520.235,254.057 521.902,254.39 523.5,254.5C 524.167,253.833 524.833,253.167 525.5,252.5C 526.517,255.028 527.684,255.028 529,252.5C 530.925,254.973 532.758,254.973 534.5,252.5C 537.018,254.464 539.684,255.13 542.5,254.5C 545.405,252.306 548.238,252.639 551,255.5C 551.388,254.572 552.055,253.905 553,253.5C 555.405,254.462 557.739,254.129 560,252.5C 561.971,254.553 564.138,255.22 566.5,254.5 Z"/></g>
<g><path style="opacity:1" fill="#b9eb24" d="M 570.5,260.5 C 576.654,269.625 580.654,279.625 582.5,290.5C 582.662,292.527 582.495,294.527 582,296.5C 581.667,295.5 581.333,294.5 581,293.5C 580.632,294.91 579.799,295.91 578.5,296.5C 570.32,296.256 562.154,295.923 554,295.5C 553.667,296.167 553.333,296.833 553,297.5C 552.481,296.484 551.647,295.818 550.5,295.5C 544.952,296.754 539.452,296.754 534,295.5C 533.722,296.416 533.222,297.082 532.5,297.5C 521.641,271.739 502.641,262.572 475.5,270C 458.604,277.284 451.771,290.117 455,308.5C 456.252,314.923 458.252,320.923 461,326.5C 443.07,312.063 438.736,294.396 448,273.5C 449.715,271.241 451.548,269.074 453.5,267C 433.836,266.5 414.169,266.333 394.5,266.5C 414.663,265.668 434.996,265.168 455.5,265C 457.052,261.849 458.885,261.682 461,264.5C 461.308,263.692 461.808,263.025 462.5,262.5C 469.367,262.766 476.367,262.766 483.5,262.5C 484.192,263.025 484.692,263.692 485,264.5C 485.333,264.167 485.667,263.833 486,263.5C 488.069,264.264 490.236,264.764 492.5,265C 490.5,265.333 488.5,265.667 486.5,266C 491.167,266.667 495.833,266.667 500.5,266C 498.5,265.667 496.5,265.333 494.5,265C 496.081,264.293 497.581,263.46 499,262.5C 521.634,263.192 543.968,263.525 566,263.5C 567.615,262.614 569.115,261.614 570.5,260.5 Z"/></g>
<g><path style="opacity:1" fill="#000100" d="M 394.5,266.5 C 414.169,266.333 433.836,266.5 453.5,267C 451.548,269.074 449.715,271.241 448,273.5C 438.736,294.396 443.07,312.063 461,326.5C 458.252,320.923 456.252,314.923 455,308.5C 451.771,290.117 458.604,277.284 475.5,270C 502.641,262.572 521.641,271.739 532.5,297.5C 533.15,299.435 533.483,301.435 533.5,303.5C 534.5,313.827 532.5,323.494 527.5,332.5C 521.648,342.186 513.315,348.686 502.5,352C 465.835,352.5 429.168,352.667 392.5,352.5C 391.878,351.373 391.045,350.373 390,349.5C 389.5,323.502 389.333,297.502 389.5,271.5C 389.733,269.938 390.4,268.605 391.5,267.5C 392.391,266.89 393.391,266.557 394.5,266.5 Z"/></g>
<g><path style="opacity:1" fill="#647f13" d="M 350.5,267.5 C 351.167,267.5 351.833,267.5 352.5,267.5C 354.158,268.181 355.825,269.015 357.5,270C 354.32,270.137 351.32,269.637 348.5,268.5C 349.492,268.672 350.158,268.338 350.5,267.5 Z"/></g>
<g><path style="opacity:1" fill="#baef25" d="M 391.5,267.5 C 390.4,268.605 389.733,269.938 389.5,271.5C 388.506,280.652 388.173,289.985 388.5,299.5C 387.834,296.311 387.167,292.977 386.5,289.5C 385.914,289.291 385.414,288.957 385,288.5C 382.551,288.937 380.217,288.937 378,288.5C 374.842,290.433 371.509,290.433 368,288.5C 365.539,289.218 363.039,289.885 360.5,290.5C 355.934,288.521 351.268,287.855 346.5,288.5C 344.541,288.875 342.707,289.541 341,290.5C 340.768,289.263 340.268,288.263 339.5,287.5C 339.5,281.167 339.5,274.833 339.5,268.5C 342.5,268.5 345.5,268.5 348.5,268.5C 351.32,269.637 354.32,270.137 357.5,270C 355.825,269.015 354.158,268.181 352.5,267.5C 353.482,266.859 354.482,266.193 355.5,265.5C 356.425,266.641 357.259,266.641 358,265.5C 358.333,266.167 358.667,266.833 359,267.5C 361.184,268.108 363.184,267.441 365,265.5C 365.667,268.167 366.333,268.167 367,265.5C 370.27,266.435 373.437,266.435 376.5,265.5C 377.192,266.025 377.692,266.692 378,267.5C 379,266.167 380,266.167 381,267.5C 381.308,266.692 381.808,266.025 382.5,265.5C 384.359,265.888 386.359,265.888 388.5,265.5C 389.518,266.193 390.518,266.859 391.5,267.5 Z"/></g>
<g><path style="opacity:1" fill="#acee2f" d="M 582.5,290.5 C 584,296.26 584.667,302.26 584.5,308.5C 584.499,312.681 584.166,316.681 583.5,320.5C 582.677,317.023 582.177,313.356 582,309.5C 581.692,310.308 581.192,310.975 580.5,311.5C 566.11,310.977 551.444,310.644 536.5,310.5C 535.692,312.423 535.192,314.423 535,316.5C 534.825,311.981 534.325,307.647 533.5,303.5C 533.483,301.435 533.15,299.435 532.5,297.5C 533.222,297.082 533.722,296.416 534,295.5C 539.452,296.754 544.952,296.754 550.5,295.5C 551.647,295.818 552.481,296.484 553,297.5C 553.333,296.833 553.667,296.167 554,295.5C 562.154,295.923 570.32,296.256 578.5,296.5C 579.799,295.91 580.632,294.91 581,293.5C 581.333,294.5 581.667,295.5 582,296.5C 582.495,294.527 582.662,292.527 582.5,290.5 Z"/></g>
<g><path style="opacity:1" fill="#9fed37" d="M 533.5,303.5 C 534.325,307.647 534.825,311.981 535,316.5C 535.192,314.423 535.692,312.423 536.5,310.5C 551.444,310.644 566.11,310.977 580.5,311.5C 581.192,310.975 581.692,310.308 582,309.5C 582.177,313.356 582.677,317.023 583.5,320.5C 583.461,324.733 582.795,328.733 581.5,332.5C 580.778,332.082 580.278,331.416 580,330.5C 578.088,331.692 576.088,332.692 574,333.5C 559.594,332.239 545.261,332.239 531,333.5C 530.667,332.833 530.333,332.167 530,331.5C 529.329,332.252 528.496,332.586 527.5,332.5C 532.5,323.494 534.5,313.827 533.5,303.5 Z"/></g>
<g><path style="opacity:1" fill="#0f1708" d="M 328.5,266.5 C 335.858,266.418 343.191,266.752 350.5,267.5C 350.158,268.338 349.492,268.672 348.5,268.5C 345.5,268.5 342.5,268.5 339.5,268.5C 338.502,294.328 338.169,320.328 338.5,346.5C 338.5,371.5 338.5,396.5 338.5,421.5C 338.5,424.833 338.5,428.167 338.5,431.5C 338.167,431.5 337.833,431.5 337.5,431.5C 337.5,376.833 337.5,322.167 337.5,267.5C 334.287,267.81 331.287,267.477 328.5,266.5 Z"/></g>
<g><path style="opacity:1" fill="#93e93e" d="M 339.5,268.5 C 339.5,274.833 339.5,281.167 339.5,287.5C 339.333,298.838 339.5,310.172 340,321.5C 340.249,322.624 340.749,323.624 341.5,324.5C 357.021,325.54 371.854,325.54 386,324.5C 387.146,332.115 387.812,339.782 388,347.5C 388.5,331.503 388.667,315.503 388.5,299.5C 388.173,289.985 388.506,280.652 389.5,271.5C 389.333,297.502 389.5,323.502 390,349.5C 391.045,350.373 391.878,351.373 392.5,352.5C 390.7,353.473 388.866,354.473 387,355.5C 385.333,354.833 383.667,354.167 382,353.5C 376.691,353.097 371.357,353.764 366,355.5C 365.333,354.833 364.667,354.167 364,353.5C 357.293,353.227 350.459,353.56 343.5,354.5C 342.141,353.376 341.141,352.042 340.5,350.5C 340.672,349.508 340.338,348.842 339.5,348.5C 339.672,347.508 339.338,346.842 338.5,346.5C 338.169,320.328 338.502,294.328 339.5,268.5 Z"/></g>
<g><path style="opacity:1" fill="#abf030" d="M 339.5,287.5 C 340.268,288.263 340.768,289.263 341,290.5C 342.707,289.541 344.541,288.875 346.5,288.5C 351.268,287.855 355.934,288.521 360.5,290.5C 363.039,289.885 365.539,289.218 368,288.5C 371.509,290.433 374.842,290.433 378,288.5C 380.217,288.937 382.551,288.937 385,288.5C 385.414,288.957 385.914,289.291 386.5,289.5C 387.167,292.977 387.834,296.311 388.5,299.5C 388.667,315.503 388.5,331.503 388,347.5C 387.812,339.782 387.146,332.115 386,324.5C 371.854,325.54 357.021,325.54 341.5,324.5C 340.749,323.624 340.249,322.624 340,321.5C 339.5,310.172 339.333,298.838 339.5,287.5 Z"/></g>
<g><path style="opacity:1" fill="#8cec45" d="M 581.5,332.5 C 578.824,344.902 573.491,355.902 565.5,365.5C 564.828,364.733 563.995,364.066 563,363.5C 560.478,364.281 557.811,364.614 555,364.5C 553.667,361.833 552.333,361.833 551,364.5C 522.896,363.726 494.729,363.393 466.5,363.5C 464.24,365.36 461.74,365.36 459,363.5C 427.687,364.715 396.521,364.715 365.5,363.5C 362.14,364.912 358.64,365.912 355,366.5C 350.483,365.781 345.817,365.781 341,366.5C 340.501,361.177 340.334,355.844 340.5,350.5C 341.141,352.042 342.141,353.376 343.5,354.5C 350.459,353.56 357.293,353.227 364,353.5C 364.667,354.167 365.333,354.833 366,355.5C 371.357,353.764 376.691,353.097 382,353.5C 383.667,354.167 385.333,354.833 387,355.5C 388.866,354.473 390.7,353.473 392.5,352.5C 429.168,352.667 465.835,352.5 502.5,352C 513.315,348.686 521.648,342.186 527.5,332.5C 528.496,332.586 529.329,332.252 530,331.5C 530.333,332.167 530.667,332.833 531,333.5C 545.261,332.239 559.594,332.239 574,333.5C 576.088,332.692 578.088,331.692 580,330.5C 580.278,331.416 580.778,332.082 581.5,332.5 Z"/></g>
<g><path style="opacity:1" fill="#86f04c" d="M 339.5,348.5 C 340.338,348.842 340.672,349.508 340.5,350.5C 340.334,355.844 340.501,361.177 341,366.5C 345.817,365.781 350.483,365.781 355,366.5C 358.64,365.912 362.14,364.912 365.5,363.5C 396.521,364.715 427.687,364.715 459,363.5C 461.74,365.36 464.24,365.36 466.5,363.5C 494.729,363.393 522.896,363.726 551,364.5C 552.333,361.833 553.667,361.833 555,364.5C 557.811,364.614 560.478,364.281 563,363.5C 563.995,364.066 564.828,364.733 565.5,365.5C 563.542,368.792 561.209,371.792 558.5,374.5C 555.478,375.388 552.478,375.721 549.5,375.5C 548.808,374.975 548.308,374.308 548,373.5C 544.935,374.411 542.102,374.411 539.5,373.5C 538.522,373.977 537.689,374.643 537,375.5C 536.309,373.109 535.309,373.109 534,375.5C 533.667,374.833 533.333,374.167 533,373.5C 530.727,375.892 528.56,375.892 526.5,373.5C 525.808,374.025 525.308,374.692 525,375.5C 523.983,372.972 522.816,372.972 521.5,375.5C 519.941,374.926 518.441,374.26 517,373.5C 516.667,374.167 516.333,374.833 516,375.5C 515.333,374.167 514.667,374.167 514,375.5C 513.333,374.833 512.667,374.167 512,373.5C 511,374.5 510,375.5 509,376.5C 506.915,374.955 504.748,374.622 502.5,375.5C 500.902,373.027 499.402,373.027 498,375.5C 497.333,372.833 496.667,372.833 496,375.5C 494.34,375.676 492.674,375.009 491,373.5C 490.667,374.167 490.333,374.833 490,375.5C 488,375.5 486,375.5 484,375.5C 481.113,373.566 478.446,373.566 476,375.5C 474.667,374.833 473.333,374.167 472,373.5C 469.402,374.302 466.569,374.302 463.5,373.5C 462.318,375.645 460.818,375.645 459,373.5C 458,374.167 457,374.833 456,375.5C 452.662,374.487 448.995,374.487 445,375.5C 444.692,374.692 444.192,374.025 443.5,373.5C 441.024,374.229 438.524,374.896 436,375.5C 433.742,374.747 431.742,374.747 430,375.5C 428.209,373.487 426.875,373.487 426,375.5C 424.434,376.061 423.101,375.394 422,373.5C 421.374,375.991 420.541,375.991 419.5,373.5C 418.212,375.475 416.545,375.475 414.5,373.5C 413.808,374.025 413.308,374.692 413,375.5C 411.983,372.972 410.816,372.972 409.5,375.5C 406.591,374.411 403.591,374.411 400.5,375.5C 397.748,374.525 395.248,373.858 393,373.5C 392.667,374.167 392.333,374.833 392,375.5C 390,374.167 388,374.167 386,375.5C 385.667,374.833 385.333,374.167 385,373.5C 381.439,374.271 377.772,374.271 374,373.5C 373.125,375.513 371.791,375.513 370,373.5C 368.39,373.13 366.89,373.797 365.5,375.5C 365.167,374.833 364.833,374.167 364.5,373.5C 363.672,374.415 362.672,375.081 361.5,375.5C 358.688,374.474 356.188,374.474 354,375.5C 351.217,373.11 349.551,373.443 349,376.5C 346.973,375.788 345.973,374.788 346,373.5C 344.237,373.975 342.57,374.642 341,375.5C 340.809,377.708 340.309,379.708 339.5,381.5C 339.5,370.5 339.5,359.5 339.5,348.5 Z"/></g>
<g><path style="opacity:1" fill="#7bf054" d="M 558.5,374.5 C 549.367,384.571 538.367,391.904 525.5,396.5C 524.172,394.255 522.339,393.922 520,395.5C 519.667,394.833 519.333,394.167 519,393.5C 516.897,395.916 514.897,395.916 513,393.5C 509.518,394.717 506.185,395.383 503,395.5C 502.333,392.833 501.667,392.833 501,395.5C 495.216,394.557 489.716,394.557 484.5,395.5C 483.522,395.023 482.689,394.357 482,393.5C 481.333,396.167 480.667,396.167 480,393.5C 479.667,394.167 479.333,394.833 479,395.5C 475.852,394.687 472.852,394.687 470,395.5C 467.838,393.353 465.504,393.353 463,395.5C 456.827,394.324 450.327,394.324 443.5,395.5C 442.833,394.833 442.167,394.167 441.5,393.5C 441.167,394.167 440.833,394.833 440.5,395.5C 438.18,393.206 436.013,393.206 434,395.5C 425.1,394.321 416.433,394.321 408,395.5C 406.209,393.487 404.875,393.487 404,395.5C 402.209,393.487 400.875,393.487 400,395.5C 397.427,394.36 394.927,394.36 392.5,395.5C 391.784,394.689 390.95,394.022 390,393.5C 388.989,393.892 388.489,394.559 388.5,395.5C 384.377,395.377 380.211,395.377 376,395.5C 375.667,394.833 375.333,394.167 375,393.5C 374.612,394.428 373.945,395.095 373,395.5C 369.559,394.385 366.059,394.385 362.5,395.5C 361.184,392.972 360.017,392.972 359,395.5C 357.691,393.109 356.691,393.109 356,395.5C 354.667,394.167 353.333,394.167 352,395.5C 351.692,394.692 351.192,394.025 350.5,393.5C 348.714,395.922 347.048,395.922 345.5,393.5C 344.063,396.044 342.563,396.044 341,393.5C 340.667,394.167 340.333,394.833 340,395.5C 339.501,390.845 339.334,386.179 339.5,381.5C 340.309,379.708 340.809,377.708 341,375.5C 342.57,374.642 344.237,373.975 346,373.5C 345.973,374.788 346.973,375.788 349,376.5C 349.551,373.443 351.217,373.11 354,375.5C 356.188,374.474 358.688,374.474 361.5,375.5C 362.672,375.081 363.672,374.415 364.5,373.5C 364.833,374.167 365.167,374.833 365.5,375.5C 366.89,373.797 368.39,373.13 370,373.5C 371.791,375.513 373.125,375.513 374,373.5C 377.772,374.271 381.439,374.271 385,373.5C 385.333,374.167 385.667,374.833 386,375.5C 388,374.167 390,374.167 392,375.5C 392.333,374.833 392.667,374.167 393,373.5C 395.248,373.858 397.748,374.525 400.5,375.5C 403.591,374.411 406.591,374.411 409.5,375.5C 410.816,372.972 411.983,372.972 413,375.5C 413.308,374.692 413.808,374.025 414.5,373.5C 416.545,375.475 418.212,375.475 419.5,373.5C 420.541,375.991 421.374,375.991 422,373.5C 423.101,375.394 424.434,376.061 426,375.5C 426.875,373.487 428.209,373.487 430,375.5C 431.742,374.747 433.742,374.747 436,375.5C 438.524,374.896 441.024,374.229 443.5,373.5C 444.192,374.025 444.692,374.692 445,375.5C 448.995,374.487 452.662,374.487 456,375.5C 457,374.833 458,374.167 459,373.5C 460.818,375.645 462.318,375.645 463.5,373.5C 466.569,374.302 469.402,374.302 472,373.5C 473.333,374.167 474.667,374.833 476,375.5C 478.446,373.566 481.113,373.566 484,375.5C 486,375.5 488,375.5 490,375.5C 490.333,374.833 490.667,374.167 491,373.5C 492.674,375.009 494.34,375.676 496,375.5C 496.667,372.833 497.333,372.833 498,375.5C 499.402,373.027 500.902,373.027 502.5,375.5C 504.748,374.622 506.915,374.955 509,376.5C 510,375.5 511,374.5 512,373.5C 512.667,374.167 513.333,374.833 514,375.5C 514.667,374.167 515.333,374.167 516,375.5C 516.333,374.833 516.667,374.167 517,373.5C 518.441,374.26 519.941,374.926 521.5,375.5C 522.816,372.972 523.983,372.972 525,375.5C 525.308,374.692 525.808,374.025 526.5,373.5C 528.56,375.892 530.727,375.892 533,373.5C 533.333,374.167 533.667,374.833 534,375.5C 535.309,373.109 536.309,373.109 537,375.5C 537.689,374.643 538.522,373.977 539.5,373.5C 542.102,374.411 544.935,374.411 548,373.5C 548.308,374.308 548.808,374.975 549.5,375.5C 552.478,375.721 555.478,375.388 558.5,374.5 Z"/></g>
<g><path style="opacity:1" fill="#71ef5b" d="M 338.5,346.5 C 339.338,346.842 339.672,347.508 339.5,348.5C 339.5,359.5 339.5,370.5 339.5,381.5C 339.334,386.179 339.501,390.845 340,395.5C 340.333,394.833 340.667,394.167 341,393.5C 342.563,396.044 344.063,396.044 345.5,393.5C 347.048,395.922 348.714,395.922 350.5,393.5C 351.192,394.025 351.692,394.692 352,395.5C 353.333,394.167 354.667,394.167 356,395.5C 356.691,393.109 357.691,393.109 359,395.5C 360.017,392.972 361.184,392.972 362.5,395.5C 366.059,394.385 369.559,394.385 373,395.5C 373.945,395.095 374.612,394.428 375,393.5C 375.333,394.167 375.667,394.833 376,395.5C 380.211,395.377 384.377,395.377 388.5,395.5C 388.489,394.559 388.989,393.892 390,393.5C 390.95,394.022 391.784,394.689 392.5,395.5C 394.927,394.36 397.427,394.36 400,395.5C 400.875,393.487 402.209,393.487 404,395.5C 404.875,393.487 406.209,393.487 408,395.5C 416.433,394.321 425.1,394.321 434,395.5C 436.013,393.206 438.18,393.206 440.5,395.5C 440.833,394.833 441.167,394.167 441.5,393.5C 442.167,394.167 442.833,394.833 443.5,395.5C 450.327,394.324 456.827,394.324 463,395.5C 465.504,393.353 467.838,393.353 470,395.5C 472.852,394.687 475.852,394.687 479,395.5C 479.333,394.833 479.667,394.167 480,393.5C 480.667,396.167 481.333,396.167 482,393.5C 482.689,394.357 483.522,395.023 484.5,395.5C 489.716,394.557 495.216,394.557 501,395.5C 501.667,392.833 502.333,392.833 503,395.5C 506.185,395.383 509.518,394.717 513,393.5C 514.897,395.916 516.897,395.916 519,393.5C 519.333,394.167 519.667,394.833 520,395.5C 522.339,393.922 524.172,394.255 525.5,396.5C 519.708,398.949 513.708,400.782 507.5,402C 492.518,403.022 477.518,403.856 462.5,404.5C 465.522,407.853 468.522,411.187 471.5,414.5C 467.951,414.264 464.451,414.264 461,414.5C 459.216,411.997 457.549,411.997 456,414.5C 454.559,413.74 453.059,413.074 451.5,412.5C 451.167,413.167 450.833,413.833 450.5,414.5C 447.186,413.869 443.686,413.869 440,414.5C 438.691,412.109 437.691,412.109 437,414.5C 434.816,415.108 432.816,414.441 431,412.5C 430.333,413.167 429.667,413.833 429,414.5C 424.667,413.167 420.333,413.167 416,414.5C 415.667,413.833 415.333,413.167 415,412.5C 410.671,413.185 406.171,413.851 401.5,414.5C 397.833,411.167 394.167,407.833 390.5,404.5C 390.158,403.662 389.492,403.328 388.5,403.5C 387.676,407.312 387.176,411.312 387,415.5C 386.612,414.572 385.945,413.905 385,413.5C 371.666,413.501 357.999,413.501 344,413.5C 342.774,413.645 341.607,413.978 340.5,414.5C 339.832,416.969 339.165,419.302 338.5,421.5C 338.5,396.5 338.5,371.5 338.5,346.5 Z"/></g>
<g><path style="opacity:1" fill="#33742e" d="M 388.5,403.5 C 389.492,403.328 390.158,403.662 390.5,404.5C 389.833,415.5 389.167,426.5 388.5,437.5C 388.5,436.833 388.5,436.167 388.5,435.5C 388.5,424.833 388.5,414.167 388.5,403.5 Z"/></g>
<g><path style="opacity:1" fill="#62f167" d="M 388.5,403.5 C 388.5,414.167 388.5,424.833 388.5,435.5C 382.402,434.638 376.402,434.638 370.5,435.5C 369.833,434.833 369.167,434.167 368.5,433.5C 367.312,434.84 365.812,435.507 364,435.5C 360.628,435.422 357.628,435.422 355,435.5C 352.729,433.566 350.729,433.566 349,435.5C 347.149,433.219 345.482,433.219 344,435.5C 342.667,434.833 341.333,434.167 340,433.5C 339.667,435.5 339.333,437.5 339,439.5C 338.503,436.854 338.336,434.187 338.5,431.5C 338.5,428.167 338.5,424.833 338.5,421.5C 339.165,419.302 339.832,416.969 340.5,414.5C 341.607,413.978 342.774,413.645 344,413.5C 357.999,413.501 371.666,413.501 385,413.5C 385.945,413.905 386.612,414.572 387,415.5C 387.176,411.312 387.676,407.312 388.5,403.5 Z"/></g>
<g><path style="opacity:1" fill="#62f066" d="M 471.5,414.5 C 478.193,420.861 484.86,427.194 491.5,433.5C 488.261,434.401 485.261,435.068 482.5,435.5C 481.459,433.009 480.626,433.009 480,435.5C 479.333,432.833 478.667,432.833 478,435.5C 472.936,434.433 467.603,434.433 462,435.5C 461.333,432.833 460.667,432.833 460,435.5C 456.572,434.36 453.072,434.36 449.5,435.5C 447.428,433.567 445.095,433.567 442.5,435.5C 439.354,434.264 436.188,434.264 433,435.5C 432.055,435.095 431.388,434.428 431,433.5C 430.323,435.689 429.156,436.022 427.5,434.5C 425.974,434.994 424.641,435.661 423.5,436.5C 415.833,429.5 408.5,422.167 401.5,414.5C 406.171,413.851 410.671,413.185 415,412.5C 415.333,413.167 415.667,413.833 416,414.5C 420.333,413.167 424.667,413.167 429,414.5C 429.667,413.833 430.333,413.167 431,412.5C 432.816,414.441 434.816,415.108 437,414.5C 437.691,412.109 438.691,412.109 440,414.5C 443.686,413.869 447.186,413.869 450.5,414.5C 450.833,413.833 451.167,413.167 451.5,412.5C 453.059,413.074 454.559,413.74 456,414.5C 457.549,411.997 459.216,411.997 461,414.5C 464.451,414.264 467.951,414.264 471.5,414.5 Z"/></g>
<g><path style="opacity:1" fill="#56ef6f" d="M 337.5,431.5 C 337.833,431.5 338.167,431.5 338.5,431.5C 338.336,434.187 338.503,436.854 339,439.5C 339.333,437.5 339.667,435.5 340,433.5C 341.333,434.167 342.667,434.833 344,435.5C 345.482,433.219 347.149,433.219 349,435.5C 350.729,433.566 352.729,433.566 355,435.5C 357.628,435.422 360.628,435.422 364,435.5C 365.812,435.507 367.312,434.84 368.5,433.5C 369.167,434.167 369.833,434.833 370.5,435.5C 376.402,434.638 382.402,434.638 388.5,435.5C 388.5,436.167 388.5,436.833 388.5,437.5C 387.537,444.409 385.204,450.743 381.5,456.5C 380.496,455.317 379.662,453.984 379,452.5C 377.163,452.665 375.163,453.332 373,454.5C 370.455,454.257 367.955,454.257 365.5,454.5C 363.246,452.027 361.08,452.027 359,454.5C 352.251,453.926 345.584,453.593 339,453.5C 338.667,454.833 338.333,456.167 338,457.5C 337.502,454.518 337.335,451.518 337.5,448.5C 337.5,442.833 337.5,437.167 337.5,431.5 Z"/></g>
<g><path style="opacity:1" fill="#4aed76" d="M 337.5,448.5 C 337.335,451.518 337.502,454.518 338,457.5C 338.333,456.167 338.667,454.833 339,453.5C 345.584,453.593 352.251,453.926 359,454.5C 361.08,452.027 363.246,452.027 365.5,454.5C 367.955,454.257 370.455,454.257 373,454.5C 375.163,453.332 377.163,452.665 379,452.5C 379.662,453.984 380.496,455.317 381.5,456.5C 370.06,474.055 353.727,482.388 332.5,481.5C 334.832,470.47 336.498,459.47 337.5,448.5 Z"/></g>
<g><path style="opacity:1" fill="#50f073" d="M 491.5,433.5 C 502.5,443.833 513.167,454.5 523.5,465.5C 522.842,466.398 522.176,467.398 521.5,468.5C 520.167,467.833 518.833,467.167 517.5,466.5C 509.338,467.802 501.505,467.802 494,466.5C 493.667,467.167 493.333,467.833 493,468.5C 488.599,467.964 483.932,467.298 479,466.5C 473.473,466.938 467.807,467.605 462,468.5C 460.401,466.964 458.567,466.464 456.5,467C 458.745,469.731 460.745,472.564 462.5,475.5C 449.167,462.833 436.167,449.833 423.5,436.5C 424.641,435.661 425.974,434.994 427.5,434.5C 429.156,436.022 430.323,435.689 431,433.5C 431.388,434.428 432.055,435.095 433,435.5C 436.188,434.264 439.354,434.264 442.5,435.5C 445.095,433.567 447.428,433.567 449.5,435.5C 453.072,434.36 456.572,434.36 460,435.5C 460.667,432.833 461.333,432.833 462,435.5C 467.603,434.433 472.936,434.433 478,435.5C 478.667,432.833 479.333,432.833 480,435.5C 480.626,433.009 481.459,433.009 482.5,435.5C 485.261,435.068 488.261,434.401 491.5,433.5 Z"/></g>
<g><path style="opacity:1" fill="#3ef182" d="M 523.5,465.5 C 534.748,474.403 543.748,485.07 550.5,497.5C 549.709,499.056 549.376,500.39 549.5,501.5C 548.28,500.289 547.113,500.289 546,501.5C 545.692,500.692 545.192,500.025 544.5,499.5C 543.167,500.167 541.833,500.833 540.5,501.5C 539.318,499.355 537.818,499.355 536,501.5C 534.192,501.112 532.525,501.112 531,501.5C 530.333,500.833 529.667,500.167 529,499.5C 527,500.833 525,500.833 523,499.5C 522.333,502.167 521.667,502.167 521,499.5C 518.154,499.654 515.32,499.654 512.5,499.5C 510.5,502.167 508.5,502.167 506.5,499.5C 503.961,500.115 501.461,500.782 499,501.5C 498.309,499.109 497.309,499.109 496,501.5C 495.333,498.833 494.667,498.833 494,501.5C 493,501.167 492,500.833 491,500.5C 490.283,501.044 489.783,501.711 489.5,502.5C 480.167,493.833 471.167,484.833 462.5,475.5C 460.745,472.564 458.745,469.731 456.5,467C 458.567,466.464 460.401,466.964 462,468.5C 467.807,467.605 473.473,466.938 479,466.5C 483.932,467.298 488.599,467.964 493,468.5C 493.333,467.833 493.667,467.167 494,466.5C 501.505,467.802 509.338,467.802 517.5,466.5C 518.833,467.167 520.167,467.833 521.5,468.5C 522.176,467.398 522.842,466.398 523.5,465.5 Z"/></g>
<g><path style="opacity:1" fill="#30f18c" d="M 550.5,497.5 C 552.328,500.135 553.495,503.135 554,506.5C 554.499,512.491 554.666,518.491 554.5,524.5C 552.321,522.836 550.488,523.17 549,525.5C 547.667,524.833 546.333,524.167 545,523.5C 533.223,524.429 521.39,524.429 509.5,523.5C 502.131,517.132 495.464,510.132 489.5,502.5C 489.783,501.711 490.283,501.044 491,500.5C 492,500.833 493,501.167 494,501.5C 494.667,498.833 495.333,498.833 496,501.5C 497.309,499.109 498.309,499.109 499,501.5C 501.461,500.782 503.961,500.115 506.5,499.5C 508.5,502.167 510.5,502.167 512.5,499.5C 515.32,499.654 518.154,499.654 521,499.5C 521.667,502.167 522.333,502.167 523,499.5C 525,500.833 527,500.833 529,499.5C 529.667,500.167 530.333,500.833 531,501.5C 532.525,501.112 534.192,501.112 536,501.5C 537.818,499.355 539.318,499.355 540.5,501.5C 541.833,500.833 543.167,500.167 544.5,499.5C 545.192,500.025 545.692,500.692 546,501.5C 547.113,500.289 548.28,500.289 549.5,501.5C 549.376,500.39 549.709,499.056 550.5,497.5 Z"/></g>
<g><path style="opacity:1" fill="#26ef91" d="M 509.5,523.5 C 521.39,524.429 533.223,524.429 545,523.5C 546.333,524.167 547.667,524.833 549,525.5C 550.488,523.17 552.321,522.836 554.5,524.5C 552.94,537.955 546.94,548.955 536.5,557.5C 527.975,545.781 518.975,534.447 509.5,523.5 Z"/></g>
</svg>
