<?xml version="1.0" standalone="no"?>
<!DOCTYPE svg PUBLIC "-//W3C//DTD SVG 20010904//EN"
 "http://www.w3.org/TR/2001/REC-SVG-20010904/DTD/svg10.dtd">
<svg version="1.0" xmlns="http://www.w3.org/2000/svg"
 width="193.000000pt" height="229.000000pt" viewBox="0 0 193.000000 229.000000"
 preserveAspectRatio="xMidYMid meet">

<g transform="translate(0.000000,229.000000) scale(0.100000,-0.100000)"
fill="#000000" stroke="none">
<path d="M875 1990 c-27 -11 -57 -19 -65 -20 -23 0 -54 -64 -42 -86 7 -12 6
-25 0 -40 -8 -17 -7 -32 2 -54 7 -17 11 -32 9 -33 -39 -22 -52 -27 -66 -27
-17 -1 -17 -1 0 -14 9 -7 17 -22 17 -32 0 -10 9 -34 20 -52 11 -18 20 -46 20
-63 0 -64 46 -137 101 -159 16 -7 29 -19 29 -28 0 -8 -3 -12 -6 -9 -4 3 -15 2
-25 -4 -25 -13 -24 -54 1 -86 11 -14 20 -37 20 -51 0 -20 3 -23 12 -14 16 16
33 15 52 -3 13 -13 13 -18 -1 -45 -8 -17 -13 -36 -10 -43 3 -7 7 -4 12 8 13
39 21 48 45 52 29 4 40 13 15 13 -14 0 -15 3 -5 15 7 8 9 27 5 47 l-6 33 35
-40 c20 -22 36 -43 36 -47 0 -25 24 1 55 60 60 113 45 109 175 52 159 -70 181
-94 233 -255 29 -89 70 -246 65 -250 -2 -1 -41 -10 -87 -19 -47 -10 -93 -22
-104 -28 -10 -5 -20 -8 -22 -6 -2 2 -5 47 -7 100 -2 53 -6 94 -10 92 -3 -2 -9
2 -12 8 -3 7 -4 -35 -2 -93 l5 -106 -107 28 c-59 16 -115 33 -124 39 -10 5
-28 10 -41 10 -13 0 -60 14 -105 30 -95 35 -107 36 -130 13 -19 -19 -26 -57
-8 -45 6 3 31 10 56 13 l45 7 -52 -1 c-52 -2 -52 -2 -33 18 20 19 20 19 82 -2
187 -64 173 -57 170 -94 -1 -19 -9 -40 -17 -48 -12 -13 -19 -12 -47 1 -69 33
-108 41 -139 28 -16 -7 -33 -10 -36 -6 -11 10 13 28 49 36 28 7 29 8 8 9 -30
1 -70 -24 -70 -45 0 -17 20 -18 54 -3 19 9 32 9 57 -1 l31 -13 -73 -24 c-68
-23 -80 -24 -154 -13 -44 5 -158 19 -254 30 -108 12 -180 24 -188 33 -7 7 -27
89 -43 182 -16 94 -32 181 -35 194 l-6 24 114 -6 c116 -6 303 -32 343 -48 25
-9 40 -52 100 -284 19 -71 32 -115 29 -97 -3 21 0 32 8 32 8 0 7 4 -3 10 -13
8 -10 14 15 36 l30 26 -28 -17 c-16 -9 -30 -15 -31 -13 -2 2 -8 29 -15 61 -7
32 -26 101 -42 152 -30 96 -45 115 -89 115 -24 0 -22 13 13 88 15 33 33 51 73
74 58 32 69 43 29 28 -81 -31 -108 -56 -135 -126 -21 -56 -13 -54 -155 -36
-49 6 -129 14 -178 18 -85 6 -87 6 -87 -16 0 -50 62 -387 75 -407 16 -25 30
-28 181 -44 l112 -11 4 -66 c4 -56 8 -68 32 -89 16 -13 41 -27 57 -30 17 -3
29 -12 30 -22 0 -12 2 -11 9 4 5 11 9 57 9 102 l1 83 68 -2 c54 -2 81 3 138
26 l71 28 74 -40 c41 -22 129 -67 196 -101 91 -47 123 -68 126 -84 4 -21 4
-21 6 -1 1 17 6 20 31 16 80 -12 130 49 138 167 3 47 10 80 19 86 28 21 -76
375 -131 448 -37 49 -70 69 -190 117 -50 20 -91 41 -91 46 -1 20 -27 54 -51
67 l-26 13 37 32 c19 18 43 32 51 32 9 0 14 6 11 13 -3 7 4 19 15 26 16 10 19
21 16 64 -2 32 1 51 7 50 18 -3 5 125 -19 191 -13 36 -28 61 -37 61 -8 0 -30
10 -49 22 -86 52 -206 66 -295 33z m75 -171 c43 -15 95 -16 92 0 -2 8 3 11 12
8 8 -3 30 -9 50 -12 27 -6 37 -14 45 -37 17 -49 14 -58 -19 -58 -17 0 -38 4
-48 9 -35 18 -93 41 -102 41 -6 0 -10 -7 -10 -15 0 -11 -12 -15 -42 -16 -24
-1 -33 -4 -22 -6 16 -3 20 -10 17 -23 -14 -51 43 -130 94 -130 36 0 73 42 73
83 0 27 5 36 23 41 38 10 44 7 51 -26 6 -29 7 -30 24 -15 26 24 51 21 58 -7
10 -41 1 -71 -23 -74 -12 -2 -25 -13 -29 -24 -3 -12 -24 -40 -46 -64 -32 -35
-39 -49 -34 -68 5 -22 -1 -30 -53 -66 -59 -39 -60 -41 -63 -92 -2 -30 -8 -53
-15 -56 -7 -2 -13 3 -13 11 0 7 -9 22 -21 33 -35 31 -48 66 -40 104 6 32 11
36 46 40 42 6 65 16 65 29 0 5 -22 4 -49 -1 -71 -15 -130 13 -160 74 -11 24
-21 56 -21 71 0 22 5 27 24 27 14 0 28 5 31 11 5 6 11 4 19 -6 14 -19 57 -17
64 3 3 11 0 12 -17 3 -28 -15 -44 -6 -31 19 7 13 6 19 -4 23 -8 3 -18 -5 -25
-19 -7 -16 -19 -24 -36 -24 -24 0 -25 2 -25 64 0 61 1 65 21 61 30 -6 49 -24
49 -46 0 -11 5 -19 11 -19 6 0 8 8 4 19 -4 15 0 21 17 24 21 4 20 4 -4 6 -35
1 -45 18 -22 37 18 14 18 15 -6 11 -14 -2 -33 -8 -42 -12 -15 -6 -18 -1 -18
32 0 22 3 43 7 47 9 8 108 -2 143 -15z m-177 -126 c-7 -70 -9 -72 -23 -26 -11
34 -11 45 0 58 21 26 28 17 23 -32z m305 -14 c3 -48 -11 -70 -54 -83 -28 -9
-70 25 -84 70 -18 53 -2 66 74 62 l61 -3 3 -46z m88 -237 c6 -4 16 -17 23 -30
11 -20 9 -28 -15 -59 -15 -20 -40 -58 -54 -86 l-27 -49 -39 47 c-34 42 -36 49
-22 59 8 6 36 25 61 43 25 17 51 42 58 55 11 21 11 22 -4 9 -15 -12 -17 -11
-17 3 0 17 17 21 36 8z m-235 -190 c13 -15 18 -22 10 -15 -7 6 -20 9 -27 6 -8
-3 -14 1 -14 8 0 8 -9 25 -20 39 -23 29 -25 51 -8 68 9 9 15 2 24 -33 6 -25
22 -58 35 -73z m356 -478 c90 -24 138 -32 146 -26 11 9 67 25 160 46 16 4 27
2 27 -4 0 -6 -4 -8 -10 -5 -6 4 -10 -21 -10 -67 0 -86 -27 -153 -72 -178 -39
-21 -90 -5 -264 86 -116 61 -144 80 -139 93 4 9 9 33 12 54 3 20 8 37 11 37 2
0 65 -16 139 -36z m-559 -90 c20 -4 22 -10 22 -63 0 -97 -14 -111 -68 -66 -21
18 -31 37 -35 68 -3 23 -9 50 -12 58 -4 12 2 14 32 12 21 -2 48 -6 61 -9z"/>
<path d="M827 1704 c-8 -8 3 -34 14 -34 5 0 9 9 9 20 0 19 -11 26 -23 14z"/>
<path d="M1200 1635 c-7 -9 -11 -18 -8 -20 8 -9 43 9 46 23 3 17 -23 15 -38
-3z"/>
<path d="M860 1542 c0 -30 78 -43 88 -15 2 9 -5 11 -27 7 -19 -4 -37 -2 -46 6
-8 7 -15 8 -15 2z"/>
<path d="M992 1689 c1 -13 8 -23 13 -21 15 3 12 35 -3 40 -9 3 -13 -3 -10 -19z"/>
<path d="M1330 1173 c-6 -21 -13 -67 -15 -103 -4 -59 -3 -55 14 35 20 105 20
134 1 68z"/>
<path d="M1246 1135 c-4 -26 -3 -52 3 -62 8 -14 10 -3 11 45 0 34 -2 62 -4 62
-2 0 -7 -20 -10 -45z"/>
<path d="M918 813 c7 -3 16 -2 19 1 4 3 -2 6 -13 5 -11 0 -14 -3 -6 -6z"/>
<path d="M1050 675 c0 -15 71 -127 77 -121 3 3 -6 24 -20 48 -33 56 -56 86
-57 73z"/>
</g>
</svg>
